<svg xmlns="http://www.w3.org/2000/svg" width="483" height="483"><rect id="backgroundrect" width="100%" height="100%" x="0" y="0" fill="none" stroke="none"/><title>light-icon</title><g class="currentLayer" style=""><title>Layer 1</title><g fill-rule="nonzero" fill="#D8D8D8" id="svg_1" class=""><path d="M103.37877035140991,1.6000003576278687 c-48.1,8.6 -86.8,44.2 -99,91 C-0.021229648590087885,109.50000035762787 -0.3212296485900879,119.40000035762787 0.17877035140991215,250.50000035762787 C0.4787703514099122,370.90000035762785 0.5787703514099122,373.70000035762786 2.5787703514099123,383.00000035762787 c11.1,50.1 46.7,85.8 97.3,97.6 c6.6,1.5 15,1.8 69.1,2.1 c56,0.4 61.8,0.30000000000000004 63.3,-1.2 s1.6,-20.8 1.6,-239.6 c0,-162.2 -0.30000000000000004,-238.6 -1,-240 c-1,-1.8 -2.7,-1.9 -61.3,-1.8 c-47.6,0.1 -61.9,0.4 -68.2,1.5 zm90.5,240 v202.6 l-40.7,-0.5 c-37.5,-0.4 -41.5,-0.6000000000000001 -49,-2.5 c-32.2,-8.3 -56.1,-33.1 -62.8,-65.4 c-2.2,-10.1 -2.2,-258.9 -0.1,-268.8 c6,-28.1 25.5,-51.4 51.8,-61.9 c13.2,-5.3 19.3,-5.9 62.1,-6 L193.8787703514099,39.00000035762787 v202.6 z" id="svg_2"/><path d="M111.9787703514099,100.10000035762786 c-6.3,1.2 -15.9,6 -21,10.5 c-10.5,9.1 -15.7,22 -14.9,37.2 c0.4,7.9 0.9,10 4.1,16.4 c4.7,9.7 11.8,16.8 21.5,21.6 c6.7,3.3 8.4,3.7 17.1,4 c7.9,0.30000000000000004 10.7,0 16,-1.8 c21.7,-7.3 34.8,-28.4 31.1,-50 c-4.3,-25.7 -28.7,-42.9 -53.9,-37.9 zM282.5787703514099,0.7000003576278687 c-0.4,0.30000000000000004 -0.7000000000000001,108.7 -0.7000000000000001,240.9 c0,218.1 0.1,240.2 1.6,240.8 c2.7,1 80.3,0.6000000000000001 89.9,-0.4 c40.6,-4.6 76.4,-29.3 95.9,-66 c2.5,-4.7 5.8,-12.6 7.5,-17.5 c6.3,-18.8 6.1,-13.8 6.1,-157.5 c0,-114.7 -0.2,-131.8 -1.6,-139.1 c-9.9,-52.1 -49.6,-91.4 -101.8,-100.4 C372.47877035140993,0.3000003576278687 361.6787703514099,3.5762786865234375e-7 326.8787703514099,3.5762786865234375e-7 c-24,0 -44,0.30000000000000004 -44.3,0.7000000000000001 zm106.8,217.8 c15.6,4.1 28.4,16 33.6,31.2 c3.3,9.4 3.2,23.2 -0.1,31.8 c-6.1,15.8 -18.1,26.9 -33.5,31 c-25,6.5 -51.6,-8.6 -58.9,-33.4 c-2.2,-7.6 -2.1,-20.4 0.4,-28.2 c7.5,-24.5 33.5,-38.9 58.5,-32.4 z" id="svg_3"/></g></g></svg>